<svg xmlns="http://www.w3.org/2000/svg" viewBox="0 0 24 24" fill="currentColor">
  <path d="M16.5921 9.1962h-.5V9.1962c-.0554 0-.1107.0554-.1107.1107v5.3321c0 .0554.0554.1107.1107.1107h.5c.0554 0 .1107-.0554.1107-.1107V9.3069C16.7028 9.2516 16.6474 9.1962 16.5921 9.1962z"/>
  <path d="M17.6479 9.1962h-1.0553v5.5535h1.0553c.0554 0 .1107-.0554.1107-.1107V9.3069C17.7586 9.2516 17.7032 9.1962 17.6479 9.1962z"/>
  <path d="M12 2C6.4767 2 2 6.4767 2 12s4.4767 10 10 10 10-4.4767 10-10S17.5233 2 12 2zm4.7586 12.5535c0 .2214-.1107.3321-.3321.3321h-1.0553c-.2214 0-.3321-.1107-.3321-.3321V9.3069c0-.2214.1107-.3321.3321-.3321h1.0553c.2214 0 .3321.1107.3321.3321v5.2466z"/>
</svg> 