<svg xmlns="http://www.w3.org/2000/svg" viewBox="0 0 24 24" fill="currentColor">
  <path d="M12 2C6.4767 2 2 6.4767 2 12s4.4767 10 10 10 10-4.4767 10-10S17.5233 2 12 2zm0 15.5c-.1657 0-.3315-.0276-.4767-.0828l-.0552-.0276C9.1767 16.3812 7.1932 13.1932 7 9.8932c-.0276-.4767.0276-.9534.1657-1.4026.3591-1.1467 1.1467-2.1 2.1552-2.7301C10.1932 5.2329 11.0967 5 12 5s1.8068.2329 2.6791.7605c1.0085.6301 1.7961 1.5834 2.1552 2.7301.1381.4492.1933.9259.1657 1.4026-.1932 3.3-2.1767 6.488-4.4681 7.4964l-.0552.0276c-.1452.0552-.3109.0828-.4767.0828z"/>
</svg> 