<svg xmlns="http://www.w3.org/2000/svg" viewBox="0 0 24 24" fill="none" stroke="currentColor">
  <path d="M12 13.5a1.5 1.5 0 1 1 0-3 1.5 1.5 0 0 1 0 3Z" fill="currentColor"/>
  <path d="M12 21.35c-2.355 0-4.385-.835-6.089-2.501-1.704-1.666-2.556-3.67-2.556-6.01 0-2.34.852-4.344 2.556-6.01C7.615 5.165 9.645 4.33 12 4.33c2.355 0 4.385.835 6.089 2.5 1.704 1.666 2.556 3.67 2.556 6.01 0 2.34-.852 4.344-2.556 6.01-1.704 1.666-3.734 2.5-6.089 2.5Z"/>
  <path d="M12 16.5c6.02 0 10.5-2.49 10.5-5.5S18.02 5.5 12 5.5 1.5 7.99 1.5 11s4.48 5.5 10.5 5.5Z"/>
</svg> 