<svg xmlns="http://www.w3.org/2000/svg" viewBox="0 0 24 24" fill="currentColor">
  <path d="M20.205 16.392c-2.469 3.289-7.741 2.179-11.122 2.338 0 0-.599.034-1.201.133 0 0 .228-.097.519-.198 2.374-.821 3.496-.986 4.939-1.727 2.71-1.388 5.408-4.413 5.957-7.555-1.032 3.022-4.17 5.623-7.027 6.679-1.955.722-5.492 1.424-5.492 1.424.002-.001-1.377-.746-1.417-.764-3.344-1.487-3.454-8.099 2.627-10.225 2.654-.927 5.204-.42 8.091-1.042 3.062-.659 6.597-2.75 8.009-5.487-1.39 4.064-5.617 7.152-9.498 8.493 2.614-.813 5.324-2.571 6.433-4.482-1.941 2.791-6.271 4.81-10.091 4.81-.749 0-1.489-.087-2.205-.254-.136-.032-.271-.067-.405-.104 2.87-1.883 8.272-2.216 11.835-6.413C21.107 2.635 22.677.5 22.677.5s-4.125 7.328-12.25 8.646C6.974 9.67 2.053 7.508 2.053 7.508c-.628 3.305.885 7.354 4.163 9.321-.561 1.197-.311 3.096-.311 3.096s-.011.053-.03.143l.03-.143c-.148.706-.591 2.823-2.365 3.065-1.628.221-1.689-.836-1.689-.836s-.756-1.449-.89-2.858C.484 16.219 2.55 12.086 2.55 12.086c.466 3.558 2.619 6.064 2.619 6.064-.305-2.159-.247-5.271.891-7.591 1.684-3.439 5.323-5.508 5.323-5.508s-2.855 3.642-3.765 7.195c-.996 3.892-.493 7.641-.493 7.641s3.413.089 5.756-.481c2.344-.57 4.577-1.673 5.829-2.994"/>
</svg> 