<svg xmlns="http://www.w3.org/2000/svg" viewBox="0 0 24 24" fill="currentColor">
  <path d="M3 3h18v18H3V3zm10.71 12.79c.75.33 1.64.5 2.66.5 1.12 0 2.15-.19 3.09-.56.94-.37 1.67-.89 2.18-1.56l-1.69-1.1c-.36.43-.82.77-1.38 1.02s-1.16.37-1.81.37c-.86 0-1.54-.21-2.05-.64-.51-.42-.77-.99-.77-1.69s.26-1.27.77-1.69c.51-.42 1.2-.64 2.05-.64.65 0 1.25.12 1.81.37s1.02.59 1.38 1.02l1.69-1.1c-.51-.67-1.24-1.19-2.18-1.56-.94-.37-1.97-.56-3.09-.56-1.02 0-1.91.17-2.66.5-.75.33-1.33.79-1.73 1.38-.4.59-.6 1.26-.6 2.02 0 .76.2 1.43.6 2.02.4.59.98 1.05 1.73 1.38zm-4.85-.54h2.17v-5.5H7.87v5.5z"/>
</svg> 